<svg xmlns="http://www.w3.org/2000/svg" width="176.707" height="70" viewBox="0 0 176.707 70"><g fill="none" fill-rule="evenodd"><path fill="#05C275" d="M160.215 53.78v-19.4h-34.454v19.4h-7.956V11.098h7.956v16.976h34.454V11.098h7.956V53.78z"/><path fill="#051C40" d="M60.301 53.78v-6.305h37.23c3.57 0 5.354-1.314 5.354-3.94v-5.397c0-2.627-1.784-3.94-5.353-3.94H72.346c-2.433 0-4.501-.253-6.205-.759-1.702-.504-3.092-1.212-4.166-2.121-1.075-.91-1.856-1.991-2.343-3.244-.486-1.253-.73-2.648-.73-4.184v-2.485c0-1.536.244-2.93.73-4.184.487-1.253 1.268-2.334 2.343-3.243 1.074-.91 2.464-1.617 4.166-2.122 1.704-.506 3.772-.758 6.205-.758h36.257v6.305H72.346c-3.568 0-5.353 1.314-5.353 3.941v2.607c0 2.628 1.785 3.94 5.353 3.94h25.186c2.433 0 4.501.254 6.205.76 1.703.504 3.092 1.212 4.166 2.121 1.075.91 1.856 1.99 2.343 3.244.486 1.252.73 2.647.73 4.183v5.275c0 1.536-.244 2.93-.73 4.183-.487 1.253-1.268 2.334-2.343 3.243-1.074.91-2.463 1.617-4.166 2.123-1.704.505-3.772.757-6.205.757h-37.23ZM45.388 53.78l-15.97-19.037h-13.75V53.78H7.683V11.098h7.985v17.34h13.57l15.91-17.34h9.486L35.842 30.984 54.574 53.78z"/><path fill="#05C275" d="M132.317 39.268h19.634v4.269h-19.634zM132.317 11.098h19.634v4.268h-19.634zM0 5.976V0h176.707v5.976z"/><path fill="#051C40" d="M12.642 69.909h2.547l-3.437-4.676 3.314-4.493h-2.448l-2.851 4.023V60.74H7.683v9.169h2.084V65.86l2.875 4.049Zm10.304 0h2.205l-3.095-9.169h-2.412l-3.095 9.169h2.181l.511-1.62h3.193l.512 1.62Zm-1.048-3.344H19.79l1.048-3.356 1.06 3.356ZM32.59 60.74v5.681l-3.484-5.68h-2.084v9.168h2.084v-5.655l3.484 5.655h2.083V60.74h-2.083Zm4.066 1.79h2.266v7.379h2.084v-7.38h2.266V60.74h-6.616v1.79Zm17.016 2.769a5.328 5.328 0 0 0-.22-1.546 4.587 4.587 0 0 0-.619-1.295 4.24 4.24 0 0 0-2.143-1.626 4.441 4.441 0 0 0-2.78 0c-.439.148-.841.359-1.207.636a4.256 4.256 0 0 0-.952.99c-.27.385-.48.816-.625 1.295A5.238 5.238 0 0 0 44.9 65.3c.002.553.077 1.068.226 1.547.146.479.355.912.625 1.297a4.29 4.29 0 0 0 2.159 1.633c.438.148.901.222 1.388.224a4.217 4.217 0 0 0 2.587-.861c.364-.277.678-.608.947-.996.266-.385.473-.818.62-1.297.145-.479.218-.994.22-1.547Zm-6.64 0c.002-.547.096-1.02.279-1.418.184-.396.444-.703.783-.918.337-.218.74-.327 1.204-.33.457.003.856.112 1.19.33.338.215.6.522.784.918.185.399.279.87.28 1.418-.001.537-.095 1.007-.28 1.403a2.163 2.163 0 0 1-.784.928c-.334.218-.733.33-1.19.333-.465-.003-.867-.115-1.204-.333a2.149 2.149 0 0 1-.783-.928c-.183-.396-.277-.866-.279-1.403Zm17.15 0a5.328 5.328 0 0 0-.22-1.546 4.588 4.588 0 0 0-.618-1.295 4.24 4.24 0 0 0-2.144-1.626 4.441 4.441 0 0 0-2.78 0c-.439.148-.84.359-1.206.636a4.256 4.256 0 0 0-.953.99c-.27.385-.479.816-.625 1.295a5.24 5.24 0 0 0-.225 1.546c.002.553.077 1.068.225 1.547.146.479.355.912.625 1.297a4.292 4.292 0 0 0 2.16 1.633c.438.148.9.222 1.388.224a4.218 4.218 0 0 0 2.587-.861c.363-.277.678-.608.946-.996.266-.385.473-.818.62-1.297.146-.479.219-.994.22-1.547Zm-6.64 0c.003-.547.096-1.02.28-1.418.184-.396.444-.703.783-.918.337-.218.739-.327 1.204-.33.457.003.855.112 1.19.33.337.215.599.522.784.918.185.399.278.87.28 1.418-.002.537-.095 1.007-.28 1.403a2.163 2.163 0 0 1-.784.928c-.335.218-.733.33-1.19.333-.465-.003-.867-.115-1.204-.333a2.148 2.148 0 0 1-.784-.928c-.183-.396-.276-.866-.278-1.403Zm13.253-1.58c.002.36-.092.643-.28.844-.187.2-.475.302-.866.305H68.36v-2.273h1.291c.26.002.474.048.644.14a.896.896 0 0 1 .377.39c.084.168.125.365.125.593Zm-4.52-2.979v9.169h2.083v-3.461h.5l1.778 3.46h2.352l-1.974-3.63c.33-.107.613-.248.853-.429.24-.18.437-.387.591-.623.154-.234.27-.487.345-.76.075-.271.111-.55.111-.839 0-.4-.064-.775-.196-1.123a2.577 2.577 0 0 0-.59-.92 2.73 2.73 0 0 0-.982-.617c-.392-.148-.85-.225-1.375-.227h-3.497Zm15.091 6.439a2.544 2.544 0 0 0-.18-.986 2.143 2.143 0 0 0-.48-.701 3.048 3.048 0 0 0-.678-.49c-.25-.132-.51-.25-.776-.348-.266-.1-.525-.192-.775-.28a5.65 5.65 0 0 1-.679-.282c-.2-.1-.359-.219-.479-.356a.753.753 0 0 1-.18-.5.925.925 0 0 1 .115-.476.702.702 0 0 1 .313-.278c.13-.06.28-.087.449-.083a1.1 1.1 0 0 1 .497.122.875.875 0 0 1 .341.327c.086.138.134.309.149.504h2.254a3.077 3.077 0 0 0-.275-1.166 2.525 2.525 0 0 0-.66-.862 2.894 2.894 0 0 0-.995-.531 4.185 4.185 0 0 0-1.275-.183c-.45 0-.865.06-1.242.179-.38.117-.709.291-.99.522-.28.228-.497.511-.651.846-.155.335-.234.72-.236 1.156 0 .405.06.751.177 1.039.116.287.276.529.477.724.2.199.428.362.68.495.252.135.514.248.784.344.268.095.53.185.782.27.254.082.481.175.684.273.203.1.366.223.486.364.117.142.18.318.183.527a.873.873 0 0 1-.125.462.795.795 0 0 1-.345.295c-.15.07-.325.105-.53.105-.197 0-.37-.037-.522-.113a.903.903 0 0 1-.365-.348 1.365 1.365 0 0 1-.173-.584H74.91c.018.464.114.873.288 1.225.175.353.412.65.715.886.3.24.65.42 1.045.54.399.122.828.183 1.29.183.5-.002.944-.078 1.33-.224.388-.146.713-.35.979-.61.266-.257.467-.557.603-.896.138-.34.207-.703.207-1.091Zm4.297-2.337v-2.3h1.133c.276.003.5.048.675.142a.87.87 0 0 1 .385.396c.081.172.123.375.123.612s-.042.44-.123.611a.87.87 0 0 1-.385.397c-.175.093-.399.14-.675.142h-1.133Zm4.435-1.15c0-.425-.065-.814-.197-1.17a2.552 2.552 0 0 0-1.571-1.558c-.393-.147-.85-.222-1.375-.224H83.58v9.169h2.083v-3.291h1.292c.544-.005 1.015-.085 1.411-.244.396-.16.723-.377.979-.651s.445-.586.568-.934a3.25 3.25 0 0 0 .185-1.097Zm7.257-2.952h-5.239v9.169h5.24v-1.79H94.2v-2.01h2.79v-1.725H94.2v-1.855h3.155V60.74Zm1.934 4.571c.002.688.108 1.318.317 1.886.209.568.506 1.06.888 1.473.383.416.836.736 1.36.96a4.368 4.368 0 0 0 1.736.344 4.37 4.37 0 0 0 1.848-.388 3.81 3.81 0 0 0 1.393-1.1c.378-.477.65-1.048.817-1.711h-2.291c-.179.391-.423.685-.731.88-.307.197-.66.295-1.06.295a2.016 2.016 0 0 1-1.127-.325 2.11 2.11 0 0 1-.755-.91c-.18-.393-.272-.861-.275-1.404.003-.542.095-1.01.275-1.404a2.11 2.11 0 0 1 .755-.91 2.015 2.015 0 0 1 1.127-.324c.4 0 .753.098 1.06.294.308.196.552.49.73.882h2.292c-.167-.664-.44-1.237-.817-1.716a3.832 3.832 0 0 0-1.393-1.106c-.55-.258-1.165-.39-1.848-.391a4.368 4.368 0 0 0-1.736.344 4.006 4.006 0 0 0-1.36.964c-.382.418-.679.91-.888 1.48-.209.57-.315 1.2-.317 1.887Zm10.572 4.598h2.083V60.74h-2.083v9.169Zm10.364 0h2.205l-3.094-9.169h-2.413l-3.094 9.169h2.18l.512-1.62h3.192l.512 1.62Zm-1.048-3.344h-2.108l1.049-3.356 1.06 3.356Zm5.126-5.825v9.169h4.812v-1.724h-2.729V60.74h-2.083Zm6.745 9.169h2.084V60.74h-2.084v9.169Zm10.742-2.73a2.544 2.544 0 0 0-.18-.986 2.143 2.143 0 0 0-.48-.701 3.049 3.049 0 0 0-.678-.49 6.23 6.23 0 0 0-.775-.348c-.266-.1-.526-.192-.776-.28a5.658 5.658 0 0 1-.678-.282c-.201-.1-.36-.219-.48-.356a.753.753 0 0 1-.18-.5.925.925 0 0 1 .116-.476.701.701 0 0 1 .312-.278c.13-.06.28-.087.45-.083a1.1 1.1 0 0 1 .497.122.875.875 0 0 1 .34.327c.086.138.134.309.149.504h2.254a3.077 3.077 0 0 0-.274-1.166 2.526 2.526 0 0 0-.66-.862 2.894 2.894 0 0 0-.995-.531 4.185 4.185 0 0 0-1.276-.183c-.45 0-.865.06-1.242.179-.38.117-.709.291-.99.522-.279.228-.497.511-.651.846-.154.335-.233.72-.235 1.156 0 .405.058.751.176 1.039.116.287.277.529.477.724.201.199.429.362.68.495.253.135.514.248.784.344.268.095.53.185.782.27.254.082.481.175.685.273.202.1.365.223.485.364.118.142.18.318.183.527a.873.873 0 0 1-.124.462.795.795 0 0 1-.345.295c-.15.07-.325.105-.53.105-.198 0-.37-.037-.522-.113a.902.902 0 0 1-.366-.348 1.364 1.364 0 0 1-.173-.584h-2.217c.019.464.114.873.289 1.225.174.353.412.65.714.886.301.24.65.42 1.046.54a4.4 4.4 0 0 0 1.29.183c.5-.002.944-.078 1.33-.224.387-.146.712-.35.978-.61.266-.257.467-.557.603-.896.139-.34.207-.703.207-1.091Zm1.751-4.65h2.266v7.38h2.084v-7.38h2.266V60.74h-6.616v1.79Zm13.837-1.789h-5.24v9.169h5.24v-1.79h-3.156v-2.01h2.79v-1.725h-2.79v-1.855h3.156V60.74Zm7.855 0v5.681l-3.485-5.68h-2.083v9.168h2.083v-5.655l3.485 5.655h2.083V60.74h-2.083Z"/></g></svg>